<svg xmlns="http://www.w3.org/2000/svg" viewBox="0 0 360 72" role="img" aria-label="LexiaTek">
  <defs>
    <linearGradient id="lexiatekGrad" x1="0%" y1="0%" x2="100%" y2="100%">
      <stop offset="0%" stop-color="#2563eb" />
      <stop offset="100%" stop-color="#06b6d4" />
    </linearGradient>
  </defs>
  <g>
    <rect x="2" y="6" width="60" height="60" rx="12" fill="#0f172a" />
    <path
      d="M17 49V23h7.4c6.1 0 9.9 3.3 9.9 8.8 0 5.6-3.8 9.1-10.1 9.1H24v8h-7zm7-14.4h1.6c2.5 0 4-1.3 4-3.4s-1.4-3.2-3.9-3.2H24v6.6zM36.8 49l6.2-26h7.9l6.2 26h-7.1l-1-4.3h-4.7l-1 4.3h-7.3zm9.3-10h3.6l-1.8-7.9-1.8 7.9z"
      fill="#06b6d4"
    />
  </g>
  <text x="78" y="44" fill="#0f172a" font-family="'Poppins', Arial, sans-serif" font-size="34" font-weight="800" letter-spacing="-0.02em">LEXIA</text>
  <text x="194" y="44" fill="url(#lexiatekGrad)" font-family="'Poppins', Arial, sans-serif" font-size="34" font-weight="800" letter-spacing="-0.02em">TEK</text>
</svg>
